<?xml version="1.0" encoding="utf-8"?>
<!-- Generator: Adobe Illustrator 25.4.1, SVG Export Plug-In . SVG Version: 6.00 Build 0)  -->
<svg version="1.1" id="Layer_1" xmlns="http://www.w3.org/2000/svg" xmlns:xlink="http://www.w3.org/1999/xlink" x="0px" y="0px"
	 viewBox="0 0 64 64" style="enable-background:new 0 0 64 64;" xml:space="preserve">
<style type="text/css">
	.st0{fill:#231F20;stroke:#FFFFFF;stroke-miterlimit:10;}
	.st1{fill:none;stroke:#231F20;stroke-miterlimit:10;}
	.st2{fill:#FFFFFF;stroke:#231F20;stroke-miterlimit:10;}
	.st3{fill:#FFFFFF;}
	.st4{fill:#231F20;}
</style>
<path class="st0" d="M45.4,51.4l0-33.1l-8.2,8.2v21.9c0,1-0.8,1.9-1.9,1.9h-2.5V17.6h-3.9v-2.2l-2,1.3l-0.6-7.2L26,16.7l-2.5-1.4v2
	h-2.6v33.2h-3.1c-0.9,0-1.6-0.7-1.6-1.6V33.8l-7.3-7.3v0c0,14.8,12.6,26.6,27.4,25.6L45.4,51.4z"/>
<path class="st1" d="M44.5,20.1l6,5.2v20.6c0,2.3-1.7,4.2-4,4.4l-2.1,0.2"/>
<line class="st2" x1="26.4" y1="21.8" x2="26.4" y2="13.6"/>
<g>
	<line class="st3" x1="46" y1="29.5" x2="47.1" y2="29.1"/>
	<polygon class="st4" points="47.1,29.7 46,30.1 46,28.9 47.1,28.5 	"/>
</g>
<g>
	<line class="st3" x1="47.8" y1="28.8" x2="49" y2="28.3"/>
	<polygon class="st4" points="49,28.9 47.8,29.4 47.8,28.2 49,27.7 	"/>
</g>
<g>
	<line class="st3" x1="46" y1="31.4" x2="47.1" y2="30.9"/>
	<polygon class="st4" points="47.1,31.6 46,32 46,30.8 47.1,30.3 	"/>
</g>
<g>
	<line class="st3" x1="47.8" y1="30.7" x2="49" y2="30.2"/>
	<polygon class="st4" points="49,30.8 47.8,31.3 47.8,30 49,29.6 	"/>
	<polygon class="st4" points="47.1,33.5 46,34 46,32.7 47.1,32.3 	"/>
	<polygon class="st4" points="49,32.7 47.8,33.2 47.8,32 49,31.5 	"/>
	<polygon class="st4" points="47.1,35.4 46,35.8 46,34.6 47.1,34.1 	"/>
	<polygon class="st4" points="49,34.6 47.8,35.1 47.8,33.8 49,33.4 	"/>
</g>
</svg>
